<svg xmlns="http://www.w3.org/2000/svg" xmlns:xlink="http://www.w3.org/1999/xlink" version="1.1" viewBox="-2508 168 2940 1704" width="2940px" height="1704px"><defs><style>@font-face{
    font-family:"DIN Next";
    font-weight: 400;
    src:url("https://whimsical.com/fonts/139e8e25-0eea-4cb4-a5d4-79048803e73d.eot?#iefix");
    src:url("https://whimsical.com/fonts/139e8e25-0eea-4cb4-a5d4-79048803e73d.eot?#iefix") format("eot"),url("https://whimsical.com/fonts/094b15e3-94bd-435b-a595-d40edfde661a.woff2") format("woff2"),url("https://whimsical.com/fonts/7e5fbe11-4858-4bd1-9ec6-a1d9f9d227aa.woff") format("woff"),url("https://whimsical.com/fonts/0f11eff9-9f05-46f5-9703-027c510065d7.ttf") format("truetype"),url("https://whimsical.com/fonts/48b61978-3f30-4274-823c-5cdcd1876918.svg#48b61978-3f30-4274-823c-5cdcd1876918") format("svg");
}
@font-face{
    font-family:"DIN Next";
    font-weight: 400;
    font-style: italic;
    src:url("https://whimsical.com/fonts/df24d5e8-5087-42fd-99b1-b16042d666c8.eot?#iefix");
    src:url("https://whimsical.com/fonts/df24d5e8-5087-42fd-99b1-b16042d666c8.eot?#iefix") format("eot"),url("https://whimsical.com/fonts/46251881-ffe9-4bfb-99c7-d6ce3bebaf3e.woff2") format("woff2"),url("https://whimsical.com/fonts/790ebbf2-62c5-4a32-946f-99d405f9243e.woff") format("woff"),url("https://whimsical.com/fonts/d28199e6-0f4a-42df-97f4-606701c6f75a.ttf") format("truetype"),url("https://whimsical.com/fonts/37a462c0-d86e-492c-b9ab-35e6bd417f6c.svg#37a462c0-d86e-492c-b9ab-35e6bd417f6c") format("svg");
}
@font-face{
    font-weight: 500;
    font-family:"DIN Next";
    src:url("https://whimsical.com/fonts/c5b058fc-55ce-4e06-a175-5c7d9a7e90f4.eot?#iefix");
    src:url("https://whimsical.com/fonts/c5b058fc-55ce-4e06-a175-5c7d9a7e90f4.eot?#iefix") format("eot"),url("https://whimsical.com/fonts/7b29ae40-30ff-4f99-a2b9-cde88669fa2f.woff2") format("woff2"),url("https://whimsical.com/fonts/bf73077c-e354-4562-a085-f4703eb1d653.woff") format("woff"),url("https://whimsical.com/fonts/0ffa6947-5317-4d07-b525-14d08a028821.ttf") format("truetype"),url("https://whimsical.com/fonts/9e423e45-5450-4991-a157-dbe6cf61eb4e.svg#9e423e45-5450-4991-a157-dbe6cf61eb4e") format("svg");
}
@font-face{
    font-family:"DIN Next";
    font-weight: 500;
    font-style: italic;
    src:url("https://whimsical.com/fonts/9897c008-fd65-48a4-afc7-36de2fea97b9.eot?#iefix");
    src:url("https://whimsical.com/fonts/9897c008-fd65-48a4-afc7-36de2fea97b9.eot?#iefix") format("eot"),url("https://whimsical.com/fonts/c7717981-647d-4b76-8817-33062e42d11f.woff2") format("woff2"),url("https://whimsical.com/fonts/b852cd4c-1255-40b1-a2be-73a9105b0155.woff") format("woff"),url("https://whimsical.com/fonts/821b00ad-e741-4e2d-af1a-85594367c8a2.ttf") format("truetype"),url("https://whimsical.com/fonts/d3e3b689-a6b0-45f2-b279-f5e194f87409.svg#d3e3b689-a6b0-45f2-b279-f5e194f87409") format("svg");
}
@font-face{
    font-weight: 700;
    font-family:"DIN Next";
    src:url("https://whimsical.com/fonts/81cd3b08-fd39-4ae3-8d05-9d24709eba84.eot?#iefix");
    src:url("https://whimsical.com/fonts/81cd3b08-fd39-4ae3-8d05-9d24709eba84.eot?#iefix") format("eot"),url("https://whimsical.com/fonts/31704504-4671-47a6-a61e-397f07410d91.woff2") format("woff2"),url("https://whimsical.com/fonts/b8a280da-481f-44a0-8d9c-1bc64bd7227c.woff") format("woff"),url("https://whimsical.com/fonts/276d122a-0fab-447b-9fc0-5d7fb0eafce2.ttf") format("truetype"),url("https://whimsical.com/fonts/8fb8273a-8213-4928-808b-b5bfaf3fd7e9.svg#8fb8273a-8213-4928-808b-b5bfaf3fd7e9") format("svg");
}
@font-face{
    font-family:"DIN Next";
    font-weight: 700;
    font-style: italic;
    src:url("https://whimsical.com/fonts/00cc6df3-ed32-4004-8dd8-1c576600a408.eot?#iefix");
    src:url("https://whimsical.com/fonts/00cc6df3-ed32-4004-8dd8-1c576600a408.eot?#iefix") format("eot"),url("https://whimsical.com/fonts/4132c4c8-680c-4d6d-9251-a2da38503bbd.woff2") format("woff2"),url("https://whimsical.com/fonts/366401fe-6df4-47be-8f55-8a411cff0dd2.woff") format("woff"),url("https://whimsical.com/fonts/dbe4f7ba-fc16-44a6-a577-571620e9edaf.ttf") format("truetype"),url("https://whimsical.com/fonts/f874edca-ee87-4ccf-8b1d-921fbc3c1c36.svg#f874edca-ee87-4ccf-8b1d-921fbc3c1c36") format("svg");
}

@font-face {
    font-family: 'PFDINMonoPro';
    src:url('https://whimsical.com/fonts/PFDINMonoPro-Regular.woff') format('woff');
    font-weight: 400;
}
@font-face {
    font-family: 'PFDINMonoPro';
    src:url('https://whimsical.com/fonts/PFDINMonoPro-Italic.woff') format('woff');
    font-style: italic;
    font-weight: 400;
}
@font-face {
    font-family: 'PFDINMonoPro';
    src:url('https://whimsical.com/fonts/PFDINMonoPro-Bold.woff') format('woff');
    font-weight: 700;
}
@font-face {
    font-family: 'PFDINMonoPro';
    src:url('https://whimsical.com/fonts/PFDINMonoPro-BoldItalic.woff') format('woff');
    font-style: italic;
    font-weight: 700;
}
* {-webkit-font-smoothing: auto; -moz-osx-font-smoothing: auto;}@media print { svg { width: 100%; height: 100%; } }</style><g><filter id="white-fill-shadow"><feDropShadow dx="0" dy="2" stdDeviation="6" flood-opacity="0.03" flood-color="#000000"></feDropShadow></filter><filter id="light-gray-fill-shadow"><feDropShadow dx="0" dy="2" stdDeviation="6" flood-opacity="0.09" flood-color="#000000"></feDropShadow></filter><filter id="yellow-fill-shadow"><feDropShadow dx="0" dy="2" stdDeviation="6" flood-opacity="0.12" flood-color="#000000"></feDropShadow></filter><filter id="fill-shadow"><feDropShadow dx="0" dy="2" stdDeviation="6" flood-opacity="0.16" flood-color="#000000"></feDropShadow></filter><filter id="frame-shadow"><feDropShadow dx="0" dy="3" stdDeviation="8" flood-opacity="0.06" flood-color="#000000"></feDropShadow></filter><filter id="button-shadow"><feDropShadow dx="0" dy="2" stdDeviation="6" flood-opacity="0.03" flood-color="#000000"></feDropShadow></filter><filter id="button-hover-shadow"><feDropShadow dx="0" dy="2" stdDeviation="6" flood-opacity="0.08" flood-color="#000000"></feDropShadow></filter><filter id="badge-shadow"><feDropShadow dx="0" dy="2" stdDeviation="6" flood-opacity="0.08" flood-color="#000000"></feDropShadow></filter></g></defs><g><rect x="-696" y="360" width="252" height="60" rx="3" ry="3" fill="#FFFFFF" filter="url(#white-fill-shadow)"></rect><g><rect x="-696" y="360" width="252" height="60" rx="3" ry="3" fill="#FFFFFF"></rect><g class="content"><g><g><g><g><g></g><text fill="#293845"><tspan x="-666.75439453125" y="396.5" font-family="DIN Next, sans-serif" font-size="18" font-style="normal" font-weight="normal">Learn the Pre-Requisites</tspan></text></g></g></g></g></g></g></g><g><rect x="-288" y="560" width="420" height="124" rx="3" ry="3" fill="#FFFFFF" filter="url(#white-fill-shadow)"></rect><g><rect x="-288" y="560" width="420" height="124" rx="3" ry="3" fill="#FFFFFF"></rect><g class="content"><g><g><g><g><g></g><text fill="#293845"><tspan x="-149.0634765625" y="587.5" font-family="DIN Next, sans-serif" font-size="15" font-style="normal" font-weight="normal">free sites for learn js :</tspan></text></g></g></g></g><g><g><g><a href="https://www.w3schools.com/js/default.asp"><g><g><rect x="-218.470703125" y="608.5" width="280.94140625" fill="rgba(44,136,217,0.35)" height="2"></rect></g><text fill="#2C88D9"><tspan x="-218.470703125" y="607.5" font-family="DIN Next, sans-serif" font-size="15" font-style="normal" font-weight="normal">https://www.w3schools.com/js/default.asp</tspan></text></g></a></g></g></g><g><g><g><a href="https://jschallenger.com/"><g><g><rect x="-160.6494140625" y="628.5" width="165.298828125" fill="rgba(44,136,217,0.35)" height="2"></rect></g><text fill="#2C88D9"><tspan x="-160.6494140625" y="627.5" font-family="DIN Next, sans-serif" font-size="15" font-style="normal" font-weight="normal">https://jschallenger.com/</tspan></text></g></a></g></g></g><g><g><g><a href="https://developer.mozilla.org/en-US/docs/Web/JavaScript"><g><g><rect x="-267.9873046875" y="648.5" width="379.974609375" fill="rgba(44,136,217,0.35)" height="2"></rect></g><text fill="#2C88D9"><tspan x="-267.9873046875" y="647.5" font-family="DIN Next, sans-serif" font-size="15" font-style="normal" font-weight="normal">https://developer.mozilla.org/en-US/docs/Web/JavaScript</tspan></text></g></a></g></g></g></g></g></g><g><rect x="-792" y="684" width="252" height="60" rx="3" ry="3" fill="#FFFFFF" filter="url(#white-fill-shadow)"></rect><g><rect x="-792" y="684" width="252" height="60" rx="3" ry="3" fill="#FFFFFF"></rect><g class="content"><g><g><g><g><g></g><text fill="#293845"><tspan x="-770.69140625" y="720.5" font-family="DIN Next, sans-serif" font-size="18" font-style="normal" font-weight="normal">general development skills</tspan></text></g></g></g></g></g></g></g><g><rect x="-480" y="912" width="252" height="60" rx="3" ry="3" fill="#FFFFFF" filter="url(#white-fill-shadow)"></rect><g><rect x="-480" y="912" width="252" height="60" rx="3" ry="3" fill="#FFFFFF"></rect><g class="content"><g><g><g><g><g></g><text fill="#293845"><tspan x="-387.4501953125" y="948.5" font-family="DIN Next, sans-serif" font-size="18" font-style="normal" font-weight="normal">fullstack</tspan></text></g></g></g></g></g></g></g><g><rect x="-1668" y="1056" width="252" height="72" rx="3" ry="3" fill="#FFFFFF" filter="url(#white-fill-shadow)"></rect><g><rect x="-1668" y="1056" width="252" height="72" rx="3" ry="3" fill="#FFFFFF"></rect><g class="content"><g><g><g><g><g></g><text fill="#293845"><tspan x="-1577.5576171875" y="1098.5" font-family="DIN Next, sans-serif" font-size="18" font-style="normal" font-weight="normal">database</tspan></text></g></g></g></g></g></g></g><g><rect x="-2448" y="1284" width="252" height="120" rx="3" ry="3" fill="#FFFFFF" filter="url(#white-fill-shadow)"></rect><g><rect x="-2448" y="1284" width="252" height="120" rx="3" ry="3" fill="#FFFFFF"></rect><g class="content"><g><g><rect x="-2422.5" y="1305.5" width="4" height="4" rx="2" stroke="#293845" stroke-width="1" fill="#293845"></rect><g><g><g><g><g></g><text fill="#293845"><tspan x="-2404" y="1314.5" font-family="DIN Next, sans-serif" font-size="18" font-style="normal" font-weight="normal">mongodb</tspan></text></g></g></g></g></g><g><rect x="-2422.5" y="1329.5" width="4" height="4" rx="2" stroke="#293845" stroke-width="1" fill="#293845"></rect><g><g><g><g><g></g><text fill="#293845"><tspan x="-2404" y="1338.5" font-family="DIN Next, sans-serif" font-size="18" font-style="normal" font-weight="normal">cassandra</tspan></text></g></g></g></g></g><g><rect x="-2422.5" y="1353.5" width="4" height="4" rx="2" stroke="#293845" stroke-width="1" fill="#293845"></rect><g><g><g><g><g></g><text fill="#293845"><tspan x="-2404" y="1362.5" font-family="DIN Next, sans-serif" font-size="18" font-style="normal" font-weight="normal">dynamodb</tspan></text></g></g></g></g></g><g><rect x="-2422.5" y="1377.5" width="4" height="4" rx="2" stroke="#293845" stroke-width="1" fill="#293845"></rect><g><g><g><g><g></g><text fill="#293845"><tspan x="-2404" y="1386.5" font-family="DIN Next, sans-serif" font-size="18" font-style="normal" font-weight="normal">litedb</tspan></text></g></g></g></g></g></g></g></g></g><g><rect x="-2016" y="1248" width="252" height="72" rx="3" ry="3" fill="#FFFFFF" filter="url(#white-fill-shadow)"></rect><g><rect x="-2016" y="1248" width="252" height="72" rx="3" ry="3" fill="#FFFFFF"></rect><g class="content"><g><g><g><g><g></g><text fill="#293845"><tspan x="-1911.28369140625" y="1290.5" font-family="DIN Next, sans-serif" font-size="18" font-style="normal" font-weight="normal">nosql</tspan></text></g></g></g></g></g></g></g><g><rect x="-2508" y="996" width="240" height="120" rx="3" ry="3" fill="#FFFFFF" filter="url(#white-fill-shadow)"></rect><g><rect x="-2508" y="996" width="240" height="120" rx="3" ry="3" fill="#FFFFFF"></rect><g class="content"><g><g><rect x="-2482.5" y="1017.5" width="4" height="4" rx="2" stroke="#293845" stroke-width="1" fill="#293845"></rect><g><g><g><g><g></g><text fill="#293845"><tspan x="-2464" y="1026.5" font-family="DIN Next, sans-serif" font-size="18" font-style="normal" font-weight="normal">sql server</tspan></text></g></g></g></g></g><g><rect x="-2482.5" y="1041.5" width="4" height="4" rx="2" stroke="#293845" stroke-width="1" fill="#293845"></rect><g><g><g><g><g></g><text fill="#293845"><tspan x="-2464" y="1050.5" font-family="DIN Next, sans-serif" font-size="18" font-style="normal" font-weight="normal">postgres</tspan></text></g></g></g></g></g><g><rect x="-2482.5" y="1065.5" width="4" height="4" rx="2" stroke="#293845" stroke-width="1" fill="#293845"></rect><g><g><g><g><g></g><text fill="#293845"><tspan x="-2464" y="1074.5" font-family="DIN Next, sans-serif" font-size="18" font-style="normal" font-weight="normal">mariadb</tspan></text></g></g></g></g></g><g><rect x="-2482.5" y="1089.5" width="4" height="4" rx="2" stroke="#293845" stroke-width="1" fill="#293845"></rect><g><g><g><g><g></g><text fill="#293845"><tspan x="-2464" y="1098.5" font-family="DIN Next, sans-serif" font-size="18" font-style="normal" font-weight="normal">mysql</tspan></text></g></g></g></g></g></g></g></g></g><g><rect x="-2040" y="960" width="252" height="72" rx="3" ry="3" fill="#FFFFFF" filter="url(#white-fill-shadow)"></rect><g><rect x="-2040" y="960" width="252" height="72" rx="3" ry="3" fill="#FFFFFF"></rect><g class="content"><g><g><g><g><g></g><text fill="#293845"><tspan x="-1951.078125" y="1002.5" font-family="DIN Next, sans-serif" font-size="18" font-style="normal" font-weight="normal">relational</tspan></text></g></g></g></g></g></g></g><g><rect x="-1920" y="1752" width="252" height="120" rx="3" ry="3" fill="#FFFFFF" filter="url(#white-fill-shadow)"></rect><g><rect x="-1920" y="1752" width="252" height="120" rx="3" ry="3" fill="#FFFFFF"></rect><g class="content"><g><g><rect x="-1894.5" y="1773.5" width="4" height="4" rx="2" stroke="#293845" stroke-width="1" fill="#293845"></rect><g><g><g><g><g></g><text fill="#293845"><tspan x="-1876" y="1782.5" font-family="DIN Next, sans-serif" font-size="18" font-style="normal" font-weight="normal">aws</tspan></text></g></g></g></g></g><g><rect x="-1894.5" y="1797.5" width="4" height="4" rx="2" stroke="#293845" stroke-width="1" fill="#293845"></rect><g><g><g><g><g></g><text fill="#293845"><tspan x="-1876" y="1806.5" font-family="DIN Next, sans-serif" font-size="18" font-style="normal" font-weight="normal">heroku</tspan></text></g></g></g></g></g><g><rect x="-1894.5" y="1821.5" width="4" height="4" rx="2" stroke="#293845" stroke-width="1" fill="#293845"></rect><g><g><g><g><g></g><text fill="#293845"><tspan x="-1876" y="1830.5" font-family="DIN Next, sans-serif" font-size="18" font-style="normal" font-weight="normal">google clod</tspan></text></g></g></g></g></g><g><rect x="-1894.5" y="1845.5" width="4" height="4" rx="2" stroke="#293845" stroke-width="1" fill="#293845"></rect><g><g><g><g><g></g><text fill="#293845"><tspan x="-1876" y="1854.5" font-family="DIN Next, sans-serif" font-size="18" font-style="normal" font-weight="normal">azure</tspan></text></g></g></g></g></g></g></g></g></g><g><rect x="-1812" y="1596" width="252" height="60" rx="3" ry="3" fill="#FFFFFF" filter="url(#white-fill-shadow)"></rect><g><rect x="-1812" y="1596" width="252" height="60" rx="3" ry="3" fill="#FFFFFF"></rect><g class="content"><g><g><g><g><g></g><text fill="#293845"><tspan x="-1714.681640625" y="1632.5" font-family="DIN Next, sans-serif" font-size="18" font-style="normal" font-weight="normal">hosting</tspan></text></g></g></g></g></g></g></g><g><rect x="-1368" y="1746" width="252" height="96" rx="3" ry="3" fill="#FFFFFF" filter="url(#white-fill-shadow)"></rect><g><rect x="-1368" y="1746" width="252" height="96" rx="3" ry="3" fill="#FFFFFF"></rect><g class="content"><g><g><rect x="-1342.5" y="1767.5" width="4" height="4" rx="2" stroke="#293845" stroke-width="1" fill="#293845"></rect><g><g><g><g><g></g><text fill="#293845"><tspan x="-1324" y="1776.5" font-family="DIN Next, sans-serif" font-size="18" font-style="normal" font-weight="normal">docker</tspan></text></g></g></g></g></g><g><rect x="-1342.5" y="1791.5" width="4" height="4" rx="2" stroke="#293845" stroke-width="1" fill="#293845"></rect><g><g><g><g><g></g><text fill="#293845"><tspan x="-1324" y="1800.5" font-family="DIN Next, sans-serif" font-size="18" font-style="normal" font-weight="normal">kubernetes</tspan></text></g></g></g></g></g><g><rect x="-1342.5" y="1815.5" width="4" height="4" rx="2" stroke="#293845" stroke-width="1" fill="#293845"></rect><g><g><g><g><g></g><text fill="#293845"><tspan x="-1324" y="1824.5" font-family="DIN Next, sans-serif" font-size="18" font-style="normal" font-weight="normal">aws</tspan></text></g></g></g></g></g></g></g></g></g><g><rect x="-1368" y="1596" width="252" height="60" rx="3" ry="3" fill="#FFFFFF" filter="url(#white-fill-shadow)"></rect><g><rect x="-1368" y="1596" width="252" height="60" rx="3" ry="3" fill="#FFFFFF"></rect><g class="content"><g><g><g><g><g></g><text fill="#293845"><tspan x="-1261.033203125" y="1632.5" font-family="DIN Next, sans-serif" font-size="18" font-style="normal" font-weight="normal">tools</tspan></text></g></g></g></g></g></g></g><g><rect x="-1500" y="1440" width="252" height="60" rx="3" ry="3" fill="#FFFFFF" filter="url(#white-fill-shadow)"></rect><g><rect x="-1500" y="1440" width="252" height="60" rx="3" ry="3" fill="#FFFFFF"></rect><g class="content"><g><g><g><g><g></g><text fill="#293845"><tspan x="-1395.20263671875" y="1476.5" font-family="DIN Next, sans-serif" font-size="18" font-style="normal" font-weight="normal">hosts</tspan></text></g></g></g></g></g></g></g><g><rect x="-732" y="1518" width="252" height="96" rx="3" ry="3" fill="#FFFFFF" filter="url(#white-fill-shadow)"></rect><g><rect x="-732" y="1518" width="252" height="96" rx="3" ry="3" fill="#FFFFFF"></rect><g class="content"><g><g><g><g><g></g><text fill="#293845"><tspan x="-720" y="1548.5" font-family="DIN Next, sans-serif" font-size="18" font-style="normal" font-weight="normal">Server-Side libs:</tspan></text></g></g></g></g><g><g><rect x="-706.5" y="1563.5" width="4" height="4" rx="2" stroke="#293845" stroke-width="1" fill="#293845"></rect><g><g><g><g><g></g><text fill="#293845"><tspan x="-688" y="1572.5" font-family="DIN Next, sans-serif" font-size="18" font-style="normal" font-weight="normal">Typeorm</tspan></text></g></g></g></g></g><g><rect x="-706.5" y="1587.5" width="4" height="4" rx="2" stroke="#293845" stroke-width="1" fill="#293845"></rect><g><g><g><g><g></g><text fill="#293845"><tspan x="-688" y="1596.5" font-family="DIN Next, sans-serif" font-size="18" font-style="normal" font-weight="normal">Prisma</tspan></text></g></g></g></g></g></g></g></g></g><g><rect x="-528" y="1356" width="252" height="60" rx="3" ry="3" fill="#FFFFFF" filter="url(#white-fill-shadow)"></rect><g><rect x="-528" y="1356" width="252" height="60" rx="3" ry="3" fill="#FFFFFF"></rect><g class="content"><g><g><g><g><g></g><text fill="#293845"><tspan x="-415.97607421875" y="1392.5" font-family="DIN Next, sans-serif" font-size="18" font-style="normal" font-weight="normal">libs</tspan></text></g></g></g></g></g></g></g><g><rect x="-1020" y="1350" width="252" height="96" rx="3" ry="3" fill="#FFFFFF" filter="url(#white-fill-shadow)"></rect><g><rect x="-1020" y="1350" width="252" height="96" rx="3" ry="3" fill="#FFFFFF"></rect><g class="content"><g><g><g><g><g></g><text fill="#293845"><tspan x="-1008" y="1380.5" font-family="DIN Next, sans-serif" font-size="18" font-style="normal" font-weight="normal">Nodejs Frameworks :</tspan></text></g></g></g></g><g><g><rect x="-994.5" y="1395.5" width="4" height="4" rx="2" stroke="#293845" stroke-width="1" fill="#293845"></rect><g><g><g><g><g></g><text fill="#293845"><tspan x="-976" y="1404.5" font-family="DIN Next, sans-serif" font-size="18" font-style="normal" font-weight="normal">NestJS</tspan></text></g></g></g></g></g><g><rect x="-994.5" y="1419.5" width="4" height="4" rx="2" stroke="#293845" stroke-width="1" fill="#293845"></rect><g><g><g><g><g></g><text fill="#293845"><tspan x="-976" y="1428.5" font-family="DIN Next, sans-serif" font-size="18" font-style="normal" font-weight="normal">AdonisJS</tspan></text></g></g></g></g></g></g></g></g></g><g><rect x="-1020" y="1212" width="252" height="60" rx="3" ry="3" fill="#FFFFFF" filter="url(#white-fill-shadow)"></rect><g><rect x="-1020" y="1212" width="252" height="60" rx="3" ry="3" fill="#FFFFFF"></rect><g class="content"><g><g><g><g><g></g><text fill="#293845"><tspan x="-975.4375" y="1248.5" font-family="DIN Next, sans-serif" font-size="18" font-style="normal" font-weight="normal">nodejs fundamentals</tspan></text></g></g></g></g></g></g></g><g><rect x="-996" y="936" width="252" height="60" rx="3" ry="3" fill="#FFFFFF" filter="url(#white-fill-shadow)"></rect><g><rect x="-996" y="936" width="252" height="60" rx="3" ry="3" fill="#FFFFFF"></rect><g class="content"><g><g><g><g><g></g><text fill="#293845"><tspan x="-921.044921875" y="972.5" font-family="DIN Next, sans-serif" font-size="18" font-style="normal" font-weight="normal">only backend</tspan></text></g></g></g></g></g></g></g><g><rect x="-1188" y="660" width="264" height="144" rx="3" ry="3" fill="#FFFFFF" filter="url(#white-fill-shadow)"></rect><g><rect x="-1188" y="660" width="264" height="144" rx="3" ry="3" fill="#FFFFFF"></rect><g class="content"><g><g><g><g><g></g><text fill="#293845"><tspan x="-1135.76123046875" y="714.5" font-family="DIN Next, sans-serif" font-size="18" font-style="normal" font-weight="normal">GIT - Version Control</tspan></text></g></g></g></g><g><g><g><g><g></g><text fill="#293845"><tspan x="-1147.85888671875" y="738.5" font-family="DIN Next, sans-serif" font-size="18" font-style="normal" font-weight="normal">Unix - Basic Commands</tspan></text></g></g></g></g><g><g><g><g><g></g><text fill="#293845"><tspan x="-1139.71337890625" y="762.5" font-family="DIN Next, sans-serif" font-size="18" font-style="normal" font-weight="normal">DataBase (like mysql)</tspan></text></g></g></g></g></g></g></g><g><rect x="-792" y="528" width="252" height="60" rx="3" ry="3" fill="#FFFFFF" filter="url(#white-fill-shadow)"></rect><g><rect x="-792" y="528" width="252" height="60" rx="3" ry="3" fill="#FFFFFF"></rect><g class="content"><g><g><g><g><g></g><text fill="#293845"><tspan x="-750.40625" y="564.5" font-family="DIN Next, sans-serif" font-size="18" font-style="normal" font-weight="normal">Javascript/Typescript</tspan></text></g></g></g></g></g></g></g><g><rect x="-768" y="168" width="312" height="84" rx="3" ry="3" fill="#FFFFFF" filter="url(#white-fill-shadow)"></rect><g><rect x="-768" y="168" width="312" height="84" rx="3" ry="3" fill="#FFFFFF"></rect><g class="content"><g><g><g><g><g></g><text fill="#293845"><tspan x="-688.43603515625" y="217.5" font-family="DIN Next, sans-serif" font-size="21" font-style="normal" font-weight="normal">Roadmap Nodejs</tspan></text></g></g></g></g></g></g></g><g><g><path d="M-612,260v43c0,8.28426 6.71574,15 15,15h12c8.28426,0 15,6.71574 15,15v15" fill="none" stroke="#2C88D9" stroke-linecap="round" stroke-linejoin="round" stroke-width="4"></path><polygon points="-564.45905,344.9079 -570,352 -575.54095,344.9079" fill="#2C88D9" stroke="#2C88D9" stroke-width="2" stroke-linecap="round" stroke-linejoin="round"></polygon></g></g><g><g><path d="M-570,428v31c0,8.28426 -6.71574,15 -15,15h-66c-8.28426,0 -15,6.71574 -15,15v27" fill="none" stroke="#2C88D9" stroke-linecap="round" stroke-linejoin="round" stroke-width="4"></path><polygon points="-660.45905,512.9079 -666,520 -671.54095,512.9079" fill="#2C88D9" stroke="#2C88D9" stroke-width="2" stroke-linecap="round" stroke-linejoin="round"></polygon></g></g><g><g><path d="M-532,558h163c8.28426,0 15,6.71574 15,15v34c0,8.28426 6.71574,15 15,15h39" fill="none" stroke="#F7C325" stroke-linecap="round" stroke-linejoin="round" stroke-width="4"></path><polygon points="-303.0921,616.45905 -296,622 -303.0921,627.54095" fill="#F7C325" stroke="#F7C325" stroke-width="2" stroke-linecap="round" stroke-linejoin="round"></polygon></g></g><g><g><line stroke="#2C88D9" fill="none" stroke-linejoin="round" y1="596.0000000000002" stroke-linecap="round" stroke-width="4" x1="-666" y2="671.9999999999997" x2="-666"></line><polygon points="-660.45905,668.9079 -666,676 -671.54095,668.9079" fill="#2C88D9" stroke="#2C88D9" stroke-width="2" stroke-linecap="round" stroke-linejoin="round"></polygon></g></g><g><g><path d="M-800,714h-61c-4.97056,0 -9,4.02944 -9,9v0c0,4.97056 -4.02944,9 -9,9h-33" fill="none" stroke="#F7C325" stroke-linecap="round" stroke-linejoin="round" stroke-width="4"></path><polygon points="-908.9079,737.54095 -916,732 -908.9079,726.45905" fill="#F7C325" stroke="#F7C325" stroke-width="2" stroke-linecap="round" stroke-linejoin="round"></polygon></g></g><g><g><path d="M-666,752v25c0,8.28426 -6.71574,15 -15,15h-174c-8.28426,0 -15,6.71574 -15,15v117" fill="none" stroke="#2C88D9" stroke-linecap="round" stroke-linejoin="round" stroke-width="4"></path><polygon points="-864.45905,920.9079 -870,928 -875.54095,920.9079" fill="#2C88D9" stroke="#2C88D9" stroke-width="2" stroke-linecap="round" stroke-linejoin="round"></polygon></g></g><g><g><path d="M-736,966h64c6.62741,0 12,-5.37259 12,-12v0c0,-6.62741 5.37259,-12 12,-12h156" fill="none" stroke="#AC6363" stroke-linecap="round" stroke-linejoin="round" stroke-width="4"></path><polygon points="-495.0921,936.45905 -488,942 -495.0921,947.54095" fill="#AC6363" stroke="#AC6363" stroke-width="2" stroke-linecap="round" stroke-linejoin="round"></polygon></g></g><g><g><path d="M-220,942h8c4.41827,0 8,3.58173 8,8v104c0,4.41827 3.58173,8 8,8h4" fill="none" stroke="#AC6363" stroke-linecap="round" stroke-linejoin="round" stroke-width="4"></path><polygon points="-195.0921,1056.45905 -188,1062 -195.0921,1067.54095" fill="#AC6363" stroke="#AC6363" stroke-width="2" stroke-linecap="round" stroke-linejoin="round"></polygon></g></g><g><g><path d="M-1004,966h-79c-8.28426,0 -15,6.71574 -15,15v96c0,8.28426 -6.71574,15 -15,15h-291" fill="none" stroke="#2C88D9" stroke-linecap="round" stroke-linejoin="round" stroke-width="4"></path><polygon points="-1400.9079,1097.54095 -1408,1092 -1400.9079,1086.45905" fill="#2C88D9" stroke="#2C88D9" stroke-width="2" stroke-linecap="round" stroke-linejoin="round"></polygon></g></g><g><g><path d="M-948,1004v103c0,8.28426 -6.71574,15 -15,15h-396c-8.28426,0 -15,6.71574 -15,15v291" fill="none" stroke="#2C88D9" stroke-linecap="round" stroke-linejoin="round" stroke-width="4"></path><polygon points="-1368.45905,1424.9079 -1374,1432 -1379.54095,1424.9079" fill="#2C88D9" stroke="#2C88D9" stroke-width="2" stroke-linecap="round" stroke-linejoin="round"></polygon></g></g><g><g><path d="M-736,996h313c8.28426,0 15,6.71574 15,15v333" fill="none" stroke="#2C88D9" stroke-linecap="round" stroke-linejoin="round" stroke-width="4"></path><polygon points="-402.45905,1340.9079 -408,1348 -413.54095,1340.9079" fill="#2C88D9" stroke="#2C88D9" stroke-width="2" stroke-linecap="round" stroke-linejoin="round"></polygon></g></g><g><g><path d="M-870,1004v88c0,6.62741 -5.37259,12 -12,12v0c-6.62741,0 -12,5.37259 -12,12v84" fill="none" stroke="#2C88D9" stroke-linecap="round" stroke-linejoin="round" stroke-width="4"></path><polygon points="-888.45905,1196.9079 -894,1204 -899.54095,1196.9079" fill="#2C88D9" stroke="#2C88D9" stroke-width="2" stroke-linecap="round" stroke-linejoin="round"></polygon></g></g><g><g><path d="M-1676,1092h-43c-8.28426,0 -15,-6.71574 -15,-15v-66c0,-8.28426 -6.71574,-15 -15,-15h-27" fill="none" stroke="#F7C325" stroke-linecap="round" stroke-linejoin="round" stroke-width="4"></path><polygon points="-1772.9079,1001.54095 -1780,996 -1772.9079,990.45905" fill="#F7C325" stroke="#F7C325" stroke-width="2" stroke-linecap="round" stroke-linejoin="round"></polygon></g></g><g><g><path d="M-1542,1136v37c0,8.28426 -6.71574,15 -15,15h-318c-8.28426,0 -15,6.71574 -15,15v33" fill="none" stroke="#F7C325" stroke-linecap="round" stroke-linejoin="round" stroke-width="4"></path><polygon points="-1884.45905,1232.9079 -1890,1240 -1895.54095,1232.9079" fill="#F7C325" stroke="#F7C325" stroke-width="2" stroke-linecap="round" stroke-linejoin="round"></polygon></g></g><g><g><path d="M-2048,996h-49c-8.28426,0 -15,6.71574 -15,15v30c0,8.28426 -6.71574,15 -15,15h-129" fill="none" stroke="#F7C325" stroke-linecap="round" stroke-linejoin="round" stroke-width="4"></path><polygon points="-2252.9079,1061.54095 -2260,1056 -2252.9079,1050.45905" fill="#F7C325" stroke="#F7C325" stroke-width="2" stroke-linecap="round" stroke-linejoin="round"></polygon></g></g><g><g><path d="M-2024,1284h-67c-8.28426,0 -15,6.71574 -15,15v30c0,8.28426 -6.71574,15 -15,15h-63" fill="none" stroke="#F7C325" stroke-linecap="round" stroke-linejoin="round" stroke-width="4"></path><polygon points="-2180.9079,1349.54095 -2188,1344 -2180.9079,1338.45905" fill="#F7C325" stroke="#F7C325" stroke-width="2" stroke-linecap="round" stroke-linejoin="round"></polygon></g></g><g><g><path d="M-1440,1508v19c0,8.28426 -6.71574,15 -15,15h-216c-8.28426,0 -15,6.71574 -15,15v27" fill="none" stroke="#F7C325" stroke-linecap="round" stroke-linejoin="round" stroke-width="4"></path><polygon points="-1680.45905,1580.9079 -1686,1588 -1691.54095,1580.9079" fill="#F7C325" stroke="#F7C325" stroke-width="2" stroke-linecap="round" stroke-linejoin="round"></polygon></g></g><g><g><path d="M-1320,1508v25c0,8.28426 6.71574,15 15,15h48c8.28426,0 15,6.71574 15,15v21" fill="none" stroke="#F7C325" stroke-linecap="round" stroke-linejoin="round" stroke-width="4"></path><polygon points="-1236.45905,1580.9079 -1242,1588 -1247.54095,1580.9079" fill="#F7C325" stroke="#F7C325" stroke-width="2" stroke-linecap="round" stroke-linejoin="round"></polygon></g></g><g><g><path d="M-1686,1664v11c0,6.07512 -4.92488,11 -11,11h-82c-8.28426,0 -15,6.71574 -15,15v39" fill="none" stroke="#F7C325" stroke-linecap="round" stroke-linejoin="round" stroke-width="4"></path><polygon points="-1788.45905,1736.9079 -1794,1744 -1799.54095,1736.9079" fill="#F7C325" stroke="#F7C325" stroke-width="2" stroke-linecap="round" stroke-linejoin="round"></polygon></g></g><g><g><line stroke="#F7C325" fill="none" stroke-linejoin="round" y1="1663.9999999999995" stroke-linecap="round" stroke-width="4" x1="-1242" y2="1734.0000000000002" x2="-1242"></line><polygon points="-1236.45905,1730.9079 -1242,1738 -1247.54095,1730.9079" fill="#F7C325" stroke="#F7C325" stroke-width="2" stroke-linecap="round" stroke-linejoin="round"></polygon></g></g><g><g><path d="M-268,1386h14c7.73198,0 14,6.26802 14,14v152c0,7.73198 6.26802,14 14,14h10" fill="none" stroke="#F7C325" stroke-linecap="round" stroke-linejoin="round" stroke-width="4"></path><polygon points="-219.0921,1560.45905 -212,1566 -219.0921,1571.54095" fill="#F7C325" stroke="#F7C325" stroke-width="2" stroke-linecap="round" stroke-linejoin="round"></polygon></g></g><g><g><path d="M-402,1424v11c0,6.07512 -4.92488,11 -11,11h-178c-8.28426,0 -15,6.71574 -15,15v45" fill="none" stroke="#F7C325" stroke-linecap="round" stroke-linejoin="round" stroke-width="4"></path><polygon points="-600.45905,1502.9079 -606,1510 -611.54095,1502.9079" fill="#F7C325" stroke="#F7C325" stroke-width="2" stroke-linecap="round" stroke-linejoin="round"></polygon></g></g><g><g><line stroke="#2C88D9" fill="none" stroke-linejoin="round" y1="1280.0000000000002" stroke-linecap="round" stroke-width="4" x1="-894" y2="1338.0000000000005" x2="-894"></line><polygon points="-888.45905,1334.9079 -894,1342 -899.54095,1334.9079" fill="#2C88D9" stroke="#2C88D9" stroke-width="2" stroke-linecap="round" stroke-linejoin="round"></polygon></g></g><g><rect x="-180" y="1032" width="252" height="60" rx="3" ry="3" fill="#FFFFFF" filter="url(#white-fill-shadow)"></rect><g><rect x="-180" y="1032" width="252" height="60" rx="3" ry="3" fill="#FFFFFF"></rect><g class="content"><g><g><g><g><g></g><text fill="#293845"><tspan x="-120.7314453125" y="1068.5" font-family="DIN Next, sans-serif" font-size="18" font-style="normal" font-weight="normal">web-frameworks</tspan></text></g></g></g></g></g></g></g><g><rect x="180" y="996" width="252" height="60" rx="3" ry="3" fill="#FFFFFF" filter="url(#white-fill-shadow)"></rect><g><rect x="180" y="996" width="252" height="60" rx="3" ry="3" fill="#FFFFFF"></rect><g class="content"><g><g><g><g><g></g><text fill="#293845"><tspan x="272.02734375" y="1032.5" font-family="DIN Next, sans-serif" font-size="18" font-style="normal" font-weight="normal">React-Js</tspan></text></g></g></g></g></g></g></g><g><rect x="180" y="1092" width="252" height="60" rx="3" ry="3" fill="#FFFFFF" filter="url(#white-fill-shadow)"></rect><g><rect x="180" y="1092" width="252" height="60" rx="3" ry="3" fill="#FFFFFF"></rect><g class="content"><g><g><g><g><g></g><text fill="#293845"><tspan x="281.9892578125" y="1128.5" font-family="DIN Next, sans-serif" font-size="18" font-style="normal" font-weight="normal">VueJS</tspan></text></g></g></g></g></g></g></g><g><rect x="180" y="1188" width="252" height="60" rx="3" ry="3" fill="#FFFFFF" filter="url(#white-fill-shadow)"></rect><g><rect x="180" y="1188" width="252" height="60" rx="3" ry="3" fill="#FFFFFF"></rect><g class="content"><g><g><g><g><g></g><text fill="#293845"><tspan x="265.4384765625" y="1224.5" font-family="DIN Next, sans-serif" font-size="18" font-style="normal" font-weight="normal">AngularJS</tspan></text></g></g></g></g></g></g></g><g><rect x="-204" y="1446" width="252" height="240" rx="3" ry="3" fill="#FFFFFF" filter="url(#white-fill-shadow)"></rect><g><rect x="-204" y="1446" width="252" height="240" rx="3" ry="3" fill="#FFFFFF"></rect><g class="content"><g><g><g><g><g></g><text fill="#293845"><tspan x="-192" y="1476.5" font-family="DIN Next, sans-serif" font-size="18" font-style="normal" font-weight="normal">Geral Libs :</tspan></text></g></g></g></g><g><g><rect x="-178.5" y="1491.5" width="4" height="4" rx="2" stroke="#293845" stroke-width="1" fill="#293845"></rect><g><g><g><g><g></g><text fill="#293845"><tspan x="-160" y="1500.5" font-family="DIN Next, sans-serif" font-size="18" font-style="normal" font-weight="normal">express</tspan></text></g></g></g></g></g><g><rect x="-178.5" y="1515.5" width="4" height="4" rx="2" stroke="#293845" stroke-width="1" fill="#293845"></rect><g><g><g><g><g></g><text fill="#293845"><tspan x="-160" y="1524.5" font-family="DIN Next, sans-serif" font-size="18" font-style="normal" font-weight="normal">redis</tspan></text></g></g></g></g></g><g><rect x="-178.5" y="1539.5" width="4" height="4" rx="2" stroke="#293845" stroke-width="1" fill="#293845"></rect><g><g><g><g><g></g><text fill="#293845"><tspan x="-160" y="1548.5" font-family="DIN Next, sans-serif" font-size="18" font-style="normal" font-weight="normal">bull</tspan></text></g></g></g></g></g><g><rect x="-178.5" y="1563.5" width="4" height="4" rx="2" stroke="#293845" stroke-width="1" fill="#293845"></rect><g><g><g><g><g></g><text fill="#293845"><tspan x="-160" y="1572.5" font-family="DIN Next, sans-serif" font-size="18" font-style="normal" font-weight="normal">bcrypt</tspan></text></g></g></g></g></g><g><rect x="-178.5" y="1587.5" width="4" height="4" rx="2" stroke="#293845" stroke-width="1" fill="#293845"></rect><g><g><g><g><g></g><text fill="#293845"><tspan x="-160" y="1596.5" font-family="DIN Next, sans-serif" font-size="18" font-style="normal" font-weight="normal">axios</tspan></text></g></g></g></g></g><g><rect x="-178.5" y="1611.5" width="4" height="4" rx="2" stroke="#293845" stroke-width="1" fill="#293845"></rect><g><g><g><g><g></g><text fill="#293845"><tspan x="-160" y="1620.5" font-family="DIN Next, sans-serif" font-size="18" font-style="normal" font-weight="normal">jwt</tspan></text></g></g></g></g></g><g><rect x="-178.5" y="1635.5" width="4" height="4" rx="2" stroke="#293845" stroke-width="1" fill="#293845"></rect><g><g><g><g><g></g><text fill="#293845"><tspan x="-160" y="1644.5" font-family="DIN Next, sans-serif" font-size="18" font-style="normal" font-weight="normal">deep-email-validator</tspan></text></g></g></g></g></g></g><g><g><g><g><g></g><text fill="#293845"><tspan x="-192" y="1668.5" font-family="DIN Next, sans-serif" font-size="18" font-style="normal" font-weight="normal">(...)</tspan></text></g></g></g></g></g></g></g><g><g><path d="M80,1062h49c8.28426,0 15,-6.71574 15,-15v-7c0,-7.73198 6.26802,-14 14,-14h10" fill="none" stroke="#AC6363" stroke-linecap="round" stroke-linejoin="round" stroke-width="4"></path><polygon points="164.9079,1020.45905 172,1026 164.9079,1031.54095" fill="#AC6363" stroke="#AC6363" stroke-width="2" stroke-linecap="round" stroke-linejoin="round"></polygon></g></g><g><g><line stroke="#AC6363" fill="none" stroke-linejoin="round" y1="1063.9999999999998" stroke-linecap="round" stroke-width="4" x1="306" y2="1079.9999999999995" x2="306"></line><polygon points="311.54095,1076.9079 306,1084 300.45905,1076.9079" fill="#AC6363" stroke="#AC6363" stroke-width="2" stroke-linecap="round" stroke-linejoin="round"></polygon></g></g><g><g><line stroke="#AC6363" fill="none" stroke-linejoin="round" y1="1160" stroke-linecap="round" stroke-width="4" x1="306" y2="1176" x2="306"></line><polygon points="311.54095,1172.9079 306,1180 300.45905,1172.9079" fill="#AC6363" stroke="#AC6363" stroke-width="2" stroke-linecap="round" stroke-linejoin="round"></polygon></g></g></svg>